<mxfile host="app.diagrams.net" modified="2024-06-19T12:03:08.789Z" agent="Mozilla/5.0 (X11; Linux x86_64) AppleWebKit/537.36 (KHTML, like Gecko) Chrome/125.0.0.0 Safari/537.36" etag="DszpFnAQ-22skoplGOss" version="24.5.5" type="github">
  <diagram name="Page-1" id="JQZC41tGINEWn2fSmcND">
    <mxGraphModel dx="683" dy="1432" grid="1" gridSize="10" guides="1" tooltips="1" connect="1" arrows="1" fold="1" page="1" pageScale="1" pageWidth="850" pageHeight="1100" math="0" shadow="0">
      <root>
        <mxCell id="0" />
        <mxCell id="1" parent="0" />
        <mxCell id="3uVtk0U-PaGlg2lZi4n8-4" value="verification" style="whiteSpace=wrap;html=1;aspect=fixed;" vertex="1" parent="1">
          <mxGeometry x="686" y="342" width="80" height="80" as="geometry" />
        </mxCell>
        <mxCell id="3uVtk0U-PaGlg2lZi4n8-5" value="login" style="whiteSpace=wrap;html=1;aspect=fixed;" vertex="1" parent="1">
          <mxGeometry x="566" y="342" width="80" height="80" as="geometry" />
        </mxCell>
        <mxCell id="3uVtk0U-PaGlg2lZi4n8-6" value="sing up" style="whiteSpace=wrap;html=1;aspect=fixed;" vertex="1" parent="1">
          <mxGeometry x="451" y="342" width="80" height="80" as="geometry" />
        </mxCell>
        <mxCell id="3uVtk0U-PaGlg2lZi4n8-8" style="edgeStyle=orthogonalEdgeStyle;rounded=0;orthogonalLoop=1;jettySize=auto;html=1;entryX=0.5;entryY=0;entryDx=0;entryDy=0;" edge="1" parent="1" target="3uVtk0U-PaGlg2lZi4n8-6">
          <mxGeometry relative="1" as="geometry">
            <mxPoint x="545.9999999999998" y="261.9655172413793" as="sourcePoint" />
          </mxGeometry>
        </mxCell>
        <mxCell id="3uVtk0U-PaGlg2lZi4n8-9" style="edgeStyle=orthogonalEdgeStyle;rounded=0;orthogonalLoop=1;jettySize=auto;html=1;entryX=0.5;entryY=0;entryDx=0;entryDy=0;" edge="1" parent="1" target="3uVtk0U-PaGlg2lZi4n8-4">
          <mxGeometry relative="1" as="geometry">
            <mxPoint x="665.9999999999998" y="261.9655172413793" as="sourcePoint" />
          </mxGeometry>
        </mxCell>
        <mxCell id="3uVtk0U-PaGlg2lZi4n8-10" style="edgeStyle=orthogonalEdgeStyle;rounded=0;orthogonalLoop=1;jettySize=auto;html=1;exitX=0.5;exitY=1;exitDx=0;exitDy=0;entryX=0.5;entryY=0;entryDx=0;entryDy=0;" edge="1" parent="1" target="3uVtk0U-PaGlg2lZi4n8-5">
          <mxGeometry relative="1" as="geometry">
            <mxPoint x="605.9999999999998" y="292" as="sourcePoint" />
          </mxGeometry>
        </mxCell>
        <mxCell id="3uVtk0U-PaGlg2lZi4n8-7" value="AUTH" style="rounded=1;whiteSpace=wrap;html=1;" vertex="1" parent="1">
          <mxGeometry x="546" y="235" width="120" height="60" as="geometry" />
        </mxCell>
        <mxCell id="3uVtk0U-PaGlg2lZi4n8-22" style="edgeStyle=orthogonalEdgeStyle;rounded=0;orthogonalLoop=1;jettySize=auto;html=1;entryX=0.5;entryY=0;entryDx=0;entryDy=0;" edge="1" parent="1" source="3uVtk0U-PaGlg2lZi4n8-18" target="3uVtk0U-PaGlg2lZi4n8-21">
          <mxGeometry relative="1" as="geometry" />
        </mxCell>
        <mxCell id="3uVtk0U-PaGlg2lZi4n8-18" value="APP" style="whiteSpace=wrap;html=1;aspect=fixed;" vertex="1" parent="1">
          <mxGeometry x="345" y="-10" width="80" height="80" as="geometry" />
        </mxCell>
        <mxCell id="3uVtk0U-PaGlg2lZi4n8-24" style="edgeStyle=orthogonalEdgeStyle;rounded=0;orthogonalLoop=1;jettySize=auto;html=1;" edge="1" parent="1" source="3uVtk0U-PaGlg2lZi4n8-20" target="3uVtk0U-PaGlg2lZi4n8-7">
          <mxGeometry relative="1" as="geometry" />
        </mxCell>
        <mxCell id="3uVtk0U-PaGlg2lZi4n8-25" style="edgeStyle=orthogonalEdgeStyle;rounded=0;orthogonalLoop=1;jettySize=auto;html=1;" edge="1" parent="1" source="3uVtk0U-PaGlg2lZi4n8-20" target="3uVtk0U-PaGlg2lZi4n8-26">
          <mxGeometry relative="1" as="geometry">
            <mxPoint x="1050" y="110" as="targetPoint" />
          </mxGeometry>
        </mxCell>
        <mxCell id="3uVtk0U-PaGlg2lZi4n8-20" value="Client" style="rounded=1;whiteSpace=wrap;html=1;" vertex="1" parent="1">
          <mxGeometry x="451" y="80" width="120" height="60" as="geometry" />
        </mxCell>
        <mxCell id="3uVtk0U-PaGlg2lZi4n8-21" value="Server" style="rounded=1;whiteSpace=wrap;html=1;" vertex="1" parent="1">
          <mxGeometry x="210" y="80" width="120" height="60" as="geometry" />
        </mxCell>
        <mxCell id="3uVtk0U-PaGlg2lZi4n8-23" style="edgeStyle=orthogonalEdgeStyle;rounded=0;orthogonalLoop=1;jettySize=auto;html=1;entryX=0.612;entryY=-0.003;entryDx=0;entryDy=0;entryPerimeter=0;" edge="1" parent="1" source="3uVtk0U-PaGlg2lZi4n8-18" target="3uVtk0U-PaGlg2lZi4n8-20">
          <mxGeometry relative="1" as="geometry" />
        </mxCell>
        <mxCell id="3uVtk0U-PaGlg2lZi4n8-30" style="edgeStyle=orthogonalEdgeStyle;rounded=0;orthogonalLoop=1;jettySize=auto;html=1;" edge="1" parent="1" source="3uVtk0U-PaGlg2lZi4n8-26" target="3uVtk0U-PaGlg2lZi4n8-28">
          <mxGeometry relative="1" as="geometry" />
        </mxCell>
        <mxCell id="3uVtk0U-PaGlg2lZi4n8-26" value="platform" style="rounded=1;whiteSpace=wrap;html=1;" vertex="1" parent="1">
          <mxGeometry x="989.9999999999998" y="286" width="120" height="60" as="geometry" />
        </mxCell>
        <mxCell id="3uVtk0U-PaGlg2lZi4n8-32" value="" style="edgeStyle=orthogonalEdgeStyle;rounded=0;orthogonalLoop=1;jettySize=auto;html=1;" edge="1" parent="1" source="3uVtk0U-PaGlg2lZi4n8-28" target="3uVtk0U-PaGlg2lZi4n8-31">
          <mxGeometry relative="1" as="geometry" />
        </mxCell>
        <mxCell id="3uVtk0U-PaGlg2lZi4n8-39" style="edgeStyle=orthogonalEdgeStyle;rounded=0;orthogonalLoop=1;jettySize=auto;html=1;entryX=0.5;entryY=0;entryDx=0;entryDy=0;" edge="1" parent="1" source="3uVtk0U-PaGlg2lZi4n8-28" target="3uVtk0U-PaGlg2lZi4n8-35">
          <mxGeometry relative="1" as="geometry" />
        </mxCell>
        <mxCell id="3uVtk0U-PaGlg2lZi4n8-42" style="edgeStyle=orthogonalEdgeStyle;rounded=0;orthogonalLoop=1;jettySize=auto;html=1;entryX=0;entryY=0.5;entryDx=0;entryDy=0;" edge="1" parent="1" source="3uVtk0U-PaGlg2lZi4n8-28" target="3uVtk0U-PaGlg2lZi4n8-34">
          <mxGeometry relative="1" as="geometry" />
        </mxCell>
        <mxCell id="3uVtk0U-PaGlg2lZi4n8-28" value="Create&amp;nbsp; Page" style="rounded=1;whiteSpace=wrap;html=1;fillColor=#f8cecc;strokeColor=#b85450;" vertex="1" parent="1">
          <mxGeometry x="860" y="507" width="120" height="60" as="geometry" />
        </mxCell>
        <mxCell id="3uVtk0U-PaGlg2lZi4n8-31" value="habit" style="rounded=1;whiteSpace=wrap;html=1;" vertex="1" parent="1">
          <mxGeometry x="1030" y="620" width="120" height="60" as="geometry" />
        </mxCell>
        <mxCell id="3uVtk0U-PaGlg2lZi4n8-34" value="indexedDB" style="rounded=1;whiteSpace=wrap;html=1;" vertex="1" parent="1">
          <mxGeometry x="1460" y="507" width="120" height="60" as="geometry" />
        </mxCell>
        <mxCell id="3uVtk0U-PaGlg2lZi4n8-46" value="" style="edgeStyle=orthogonalEdgeStyle;rounded=0;orthogonalLoop=1;jettySize=auto;html=1;" edge="1" parent="1" source="3uVtk0U-PaGlg2lZi4n8-35" target="3uVtk0U-PaGlg2lZi4n8-45">
          <mxGeometry relative="1" as="geometry" />
        </mxCell>
        <mxCell id="3uVtk0U-PaGlg2lZi4n8-35" value="task" style="whiteSpace=wrap;html=1;rounded=1;" vertex="1" parent="1">
          <mxGeometry x="686" y="620" width="120" height="60" as="geometry" />
        </mxCell>
        <mxCell id="3uVtk0U-PaGlg2lZi4n8-45" value="&lt;font style=&quot;font-size: 19px;&quot;&gt;model&lt;/font&gt;" style="whiteSpace=wrap;html=1;rounded=1;" vertex="1" parent="1">
          <mxGeometry x="446" y="770" width="120" height="60" as="geometry" />
        </mxCell>
        <mxCell id="3uVtk0U-PaGlg2lZi4n8-52" style="edgeStyle=orthogonalEdgeStyle;rounded=0;orthogonalLoop=1;jettySize=auto;html=1;entryX=0.5;entryY=1;entryDx=0;entryDy=0;" edge="1" parent="1" source="3uVtk0U-PaGlg2lZi4n8-51" target="3uVtk0U-PaGlg2lZi4n8-45">
          <mxGeometry relative="1" as="geometry" />
        </mxCell>
        <mxCell id="3uVtk0U-PaGlg2lZi4n8-51" value="&lt;h5 style=&quot;text-align: left; font-size: 10px;&quot;&gt;interface IHabit {&lt;br&gt;&amp;nbsp; &amp;nbsp; title: string;&lt;br&gt;&amp;nbsp; &amp;nbsp; startTime: string; // habit start in schedule&lt;br&gt;&amp;nbsp; &amp;nbsp; endTime: string; // habit end in schedule&lt;br&gt;&amp;nbsp; &amp;nbsp; points: number; // points to quantify the progress&lt;br&gt;&amp;nbsp; &amp;nbsp; repeat: WeekDays[];&lt;br&gt;&amp;nbsp; &amp;nbsp; id: string;&lt;br&gt;&amp;nbsp; &amp;nbsp; createdAt: Date;&lt;br&gt;&amp;nbsp; &amp;nbsp; lastCheck: number; // the last check day&lt;br&gt;&amp;nbsp; &amp;nbsp; icon?: string;&lt;br&gt;&amp;nbsp; &amp;nbsp; description?: string;&lt;br&gt;}&lt;/h5&gt;&lt;div&gt;&lt;br&gt;&lt;/div&gt;" style="text;html=1;align=center;verticalAlign=middle;whiteSpace=wrap;rounded=0;fillColor=#e51400;fontColor=#ffffff;strokeColor=#B20000;gradientColor=default;" vertex="1" parent="1">
          <mxGeometry x="270" y="910" width="280" height="150" as="geometry" />
        </mxCell>
        <mxCell id="3uVtk0U-PaGlg2lZi4n8-53" style="edgeStyle=orthogonalEdgeStyle;rounded=0;orthogonalLoop=1;jettySize=auto;html=1;exitX=0.5;exitY=1;exitDx=0;exitDy=0;" edge="1" parent="1" source="3uVtk0U-PaGlg2lZi4n8-51" target="3uVtk0U-PaGlg2lZi4n8-51">
          <mxGeometry relative="1" as="geometry" />
        </mxCell>
      </root>
    </mxGraphModel>
  </diagram>
</mxfile>
